Patient4_TMGait_0pt3_03_right_29_EMG.mot
version=1
nRows=40
nColumns=33
inDegrees=no
endheader
time	1LAddLong	2LGlutMax	3LGlutMed	4LIliopsoas	5LSemiMemb	6LBicFemLong	7LRecFem	8LVastMed	9LVastLat	10LGasMed	11LTibAnt	12lTibPost	13LPeroneusLong	14LSol	15LExtDigLong	16LFlexDigLong	17RAddLong	18RGlutMax	19RGlutMed	20RIliopsoas	21RSemiMemb	22RBicFemLong	23RRecFem	24RVastMed	25RVastLat	26RGasMed	27RTibAnt	28RTibPost	29RPeroneusLong	30RSol	31RExtDigLong	32RFlexDigLong
54.11	0.012512	0.017242	0.1059	-0.030823	0.010986	0.047913	-0.035553	0.003357	-0.17227	0.06134	0.012512	0.02182	-0.087585	-0.074615	-0.000153	0.001984	-0.005798	0.026245	0.36941	0.066528	-0.083923	-0.093079	0.21896	-0.061493	-0.007019	-0.000305	-0.25574	-0.001526	0.081635	-0.023651	-0.004272	-0.010529
54.111	0.010986	-0.009308	0.11536	0.011292	0.034943	0.085754	0.00824	0.012817	-0.081024	0.041046	-0.002899	0.020599	0.046082	0.14099	0.039368	-0.000763	0.024414	-0.029602	0.45258	-0.10986	-0.094452	-0.10498	0.21347	-0.05661	-0.026855	-0.000916	-1.2222	-0.000916	0.041504	0.024567	-0.002441	-0.011292
54.112	0.014801	0.007324	0.12497	0.011902	0.033569	0.075531	-0.006409	-0.00473	-0.052643	0.007324	-0.007324	0.020752	0.1976	0.17563	0.033417	0.016632	0.071411	-0.059204	0.15243	-0.15137	-0.10147	-0.098114	0.20218	-0.053558	-0.02594	-0.008087	-0.31326	-0.000458	-0.080566	0.004578	0.000153	-0.001373
54.113	0.012817	-0.007172	0.037384	-0.004425	0.036011	-0.007324	-0.022736	-0.007935	0.005035	0.031281	0.024872	0.020447	0.41199	0.022888	-0.011749	-0.016327	0.055389	-0.093842	-0.031738	-0.17868	-0.10346	-0.1059	0.17944	-0.060425	-0.023193	-0.000305	0.21332	0.000916	-0.046539	-0.066071	-0.00061	0.000458
54.114	-0.003204	0.008698	0.014038	-0.009308	0.035553	0.015106	-0.011292	-0.014801	0.019684	0.071564	0.037537	0.018311	0.53757	-0.066071	-0.028229	0.002289	0.062256	-0.12512	0.025635	-0.19623	-0.1033	-0.10895	0.22217	-0.069275	-0.017395	-0.001678	0.57022	-0.002747	-0.042267	-0.087128	-0.001221	-0.005646
54.115	-0.014648	0.011139	0.03891	-0.00061	0.017395	0.063629	0.058594	-0.032043	-0.036011	0.15991	0.032196	0.020294	0.42511	-0.10117	-0.007172	-0.009003	0.10788	-0.14404	0.092926	-0.18402	-0.095978	-0.086823	0.20996	-0.082092	-0.011444	-0.006256	0.5722	0.003052	-0.070038	-0.024261	-0.004272	-0.000458
54.116	-0.0177	0.018768	0.043335	0.018921	0.005493	0.10742	0.050964	-0.030365	-0.10666	0.13962	0.001373	0.02182	0.3627	0.02655	0.032654	0.001831	0.11444	-0.14465	-0.050659	-0.11337	-0.10422	-0.070801	0.21408	-0.11902	0.008087	-0.00824	0.053253	-0.004578	-0.12192	0.059052	-0.010223	0.000763
54.117	-0.017242	0.011597	-0.005188	0.018616	0.001831	0.09201	0.075836	-0.016632	-0.095367	0.14893	-0.024567	0.031586	-0.55222	0.14954	0.012817	-0.002747	0.061035	-0.18204	0.085907	-0.003052	-0.1001	-0.080719	0.1947	-0.092163	0.020142	-0.006409	-0.20126	-0.000916	-0.13489	0.043182	-0.002289	-0.00946
54.118	-0.020905	0.001831	-0.13763	0.028534	0.005798	0.28702	0.031891	-0.022278	-0.026398	0.1059	0.003967	0.020294	-0.24643	0.12543	-0.10071	0.001678	0.00824	-0.17471	0.3688	0.053711	-0.088043	-0.041199	0.18478	-0.084076	0.009003	-0.005798	-0.63278	-0.005035	-0.044403	0.019836	-0.003662	-0.004578
54.119	-0.032196	0.062561	-0.18662	-0.001526	-0.00061	0.34775	0.023804	0.000916	0.012817	-0.093384	-0.004272	0.021362	0.1683	0.2446	-0.050812	0.00412	-0.058289	-0.19882	0.33539	0.046997	-0.088043	-0.014954	0.13367	-0.025024	0.030365	-0.002136	-0.63263	-0.003967	0.1059	0.057068	-0.000916	-0.005493
54.12	-0.044403	0.073547	-0.112	-0.000916	-0.012207	0.39261	0.097656	0.000916	0.043335	-0.17151	0.002594	0.011444	-0.14847	0.093842	-0.12344	-0.007019	-0.060272	-0.26276	-0.25406	0.068817	-0.048065	-0.00351	0.1767	0.044403	0.04425	0	-0.32806	-0.003357	0.086975	0.12161	-0.000153	0.007477
54.121	-0.037231	0.060425	-0.094757	0.028992	-0.014954	0.35217	0.098877	-0.009613	0.028076	-0.093842	0.036774	0.019531	-0.66315	0.19852	-0.057678	-0.006409	-0.039063	-0.20462	-0.19775	-0.005341	-0.032959	0.001831	0.18997	0.045624	0.034332	-0.003967	-0.067596	-0.003662	0.018921	0.13001	-0.005188	-0.004578
54.122	-0.021057	0.048828	-0.00473	0.029755	-0.049896	0.29572	0.011902	0.000153	0.00473	-0.064545	0.041504	0.018311	-0.22492	0.22507	0.046387	-0.017548	0.040283	-0.22751	-0.074463	-0.092621	-0.027771	-0.01236	0.14694	0.075836	0.033569	-0.00061	-0.1329	-0.001068	0.063934	0.13001	0.003662	-0.000916
54.123	-0.01236	0.03891	0.077515	-0.00061	-0.074615	0.25726	-0.019836	0.006866	0.014801	-0.077209	-0.005341	0.022736	0.12787	0.11932	-0.042267	0.003052	0.15091	-0.26138	-0.28809	-0.060577	-0.012665	-0.032043	0.16983	0.068512	0.024719	0.006256	-0.16174	-0.005188	0.18768	0.10178	-0.00061	0.004578
54.124	-0.019684	0.019073	0.19028	-0.017853	-0.057831	-0.084686	-0.027924	0.004883	0.09491	-0.082245	-0.016632	0.020905	0.46112	0.083313	-0.008087	-0.001221	0.20721	-0.24094	-0.16342	0.052795	-0.012207	-0.066986	0.18143	0.03006	-0.00412	0.005951	-0.77606	-0.001831	0.23956	0.098572	-0.001221	0.001373
54.125	-0.014343	0.058899	0.24262	-0.001373	-0.003052	-0.45914	0.037079	0.001678	0.12497	0.003357	-0.008698	0.024414	0.55481	0.11673	0.003815	-0.002289	0.17319	-0.21591	0.10269	-0.025024	-0.041962	-0.089264	0.15411	0.03067	-0.012054	0.00351	-0.6279	-0.000458	0.14206	0.14343	-0.002289	-0.004272
54.126	0.006409	-0.020142	0.046692	0.031433	0.064697	-0.28091	0.063324	-0.005035	0.053101	0.12466	0.018616	0.027618	0.0177	0.062714	0.003052	-0.003967	0.074005	-0.29221	0.040131	-0.023193	-0.032349	-0.10742	0.23987	0.017242	-0.016174	0.000916	-0.30045	-0.001831	0.011444	0.10712	-0.002899	-0.000916
54.127	0.013733	-0.003357	0.065002	0.005798	0.066986	-0.11002	0.12924	-0.014191	0.084839	0.34821	0.02243	0.023804	-0.36057	-0.00824	-0.024567	0.002747	0.0354	-0.23895	0.14236	0.062714	-0.041656	-0.10162	0.20172	0.002747	-0.014038	-0.007935	-0.005798	-0.002747	-0.080566	0.11078	-0.00061	-0.007477
54.128	0.015259	-0.049133	0.098877	0.003662	0.023956	-0.30914	0.18829	-0.009918	0.008392	0.48981	0.016632	0.016785	-0.000153	-0.12985	-0.008698	0.007172	-0.012665	-0.22492	-0.048218	0.15884	-0.052338	-0.10635	0.20294	-0.026093	-0.002289	-0.011292	0.30456	0.001678	-0.13351	0.15381	-0.002289	-0.007477
54.129	0.019073	-0.028534	0.079651	0.011597	-0.004272	-0.457	0.12665	-0.009155	-0.068359	0.26794	0.015411	0.016174	0.044098	-0.15213	0.053711	0.01236	-0.005341	-0.27405	-0.26413	0.11231	-0.041962	-0.078125	0.15045	0.010681	-0.007019	-0.010529	0.13626	-0.001526	-0.050507	0.14648	-0.004578	-0.007629
54.13	0.019531	-0.026398	0.1329	0.010986	0.010223	-0.24048	0.053864	0.008698	-0.066833	-0.103	-0.017242	0.032959	-0.091553	0.003052	0.055847	-0.002136	-0.032959	-0.31525	-0.13489	0.053101	-0.002441	-0.061646	0.13092	0.027008	0.011902	0.001068	-0.026245	-0.000153	0.040741	0.032349	-0.00351	-0.00351
54.131	0.014038	-0.084229	0.031586	0.019379	0.024414	-0.054932	0.014191	0.012207	-0.077362	-0.20416	0.002441	0.025177	0.080872	-0.04837	0.015259	-0.035706	-0.078278	-0.2504	-0.21973	0.08194	0.01709	-0.047455	0.097961	0.030823	0.017242	0.008392	0.30975	-0.001526	0.12573	-0.072479	-0.00412	-0.000153
54.132	0.004272	-0.031891	-0.088348	-0.001984	0.00946	0.037994	0.031128	0.014343	-0.040131	-0.24567	0.007782	0.054932	0.11871	-0.17288	-0.032959	-0.068359	-0.12299	-0.2388	-0.081482	0.097961	0.029755	-0.016479	0.07019	0.047302	0.030212	0.007324	0.40848	0.001678	0.026703	-0.060425	-0.002747	-0.006256
54.133	0.010071	-0.02182	0.028381	0.015564	-0.010986	0.12192	-0.014954	0.041199	0.028381	-0.3186	0.020447	0.052643	0.16144	-0.012817	-0.007019	0.029602	-0.12573	-0.36758	-0.26825	0.070038	0.043335	-0.002441	0.10391	0.026093	0.035248	-0.008698	0.14587	-0.001984	-0.12314	0.020752	-0.002747	-0.009918
54.134	0.005798	-0.027466	0.11322	0.015869	-0.018463	0.06012	-0.089569	0.048065	0.35492	-0.18814	0.021057	0.011292	-0.025482	0.16342	0.027313	0.12222	-0.09552	-0.38147	-0.27649	0.037689	0.039673	-0.019989	0.088806	0.028229	0.022583	-0.012512	-0.014038	0.002594	-0.10819	0.072327	0.002289	-0.008392
54.135	-0.000763	-0.028076	0.016785	0.001221	-0.007019	0.072632	-0.10849	0.028076	0.63004	-0.11444	-0.001221	0.030365	0.002441	0.1741	-0.04776	0.008392	-0.030823	-0.37705	-0.22537	-0.00946	0.042877	-0.007324	0.11185	0.004425	0.034485	-0.014954	-0.21439	0.00473	-0.087433	0.066681	0.000916	-0.011597
54.136	-0.006256	-0.000305	0.060425	-0.005798	-0.000916	0.011749	-0.10468	0.013885	0.62729	-0.085907	-0.005035	0.028229	0.25818	0.19028	0.007324	0.007629	-0.014648	-0.35553	-0.096436	-0.048065	0.031891	0.00061	0.099792	-0.052338	0.030975	-0.012207	-0.24338	0.004883	-0.080414	0.052795	-0.001831	-0.015259
54.137	0.001831	-0.003662	0.013885	-0.000763	0.006866	-0.11063	-0.050812	-0.012207	0.20538	-0.079651	-0.00061	0.012817	-0.14893	0.20737	0.022736	0.024719	-0.028381	-0.31876	-0.1886	-0.037994	0.022278	-0.004578	0.11536	-0.05249	0.025787	-0.008698	-0.112	0.002747	-0.053558	0.016937	-0.00351	-0.00946
54.138	0.021362	-0.006561	0.004425	0.0177	0.039063	-0.12497	-0.112	-0.050201	-0.058899	-0.15595	0.015869	0.02121	-0.10025	0.17441	0.025787	0.00885	-0.049744	-0.33096	-0.15732	-0.05127	0.034332	0.016327	0.10925	-0.039215	0.024719	-0.007629	0.027618	0.005798	-0.082245	-0.065765	-0.003967	-0.00061
54.139	0.013733	-0.011444	-0.01358	0.004578	0.049438	-0.06424	-0.093994	-0.031281	-0.038147	-0.18829	0.020142	0.016937	-0.27664	0.1535	0.041504	0.016632	-0.090485	-0.2803	0.17197	-0.056458	0.056	0.016327	0.12283	0.043945	0.040894	-0.000916	0.49362	0.004425	-0.031433	-0.19012	-0.001678	0.001831
54.14	0.01358	-0.008087	0.12009	-0.001526	0.037842	0.025635	-0.046539	0.000458	0.007629	-0.093079	0.020752	0.010681	-0.13779	-0.17151	-0.051422	0.003204	-0.11643	-0.25818	-0.11643	-0.055695	0.07309	0.01297	0.11444	0.036469	0.029297	0.007172	0.87494	0.007935	0.052338	-0.28961	-0.001678	0.009308
54.141	0.022736	-0.013885	0.020752	0.016937	0.026245	0.065308	-0.002594	-0.008392	-0.18845	-0.063324	0.022278	0.019531	0.040436	-0.19257	0.048676	0.007172	-0.09613	-0.25146	-0.23254	-0.11688	0.08194	-0.008698	0.14572	0.056915	0.019531	0.002594	0.47531	0.010223	0.010529	-0.28732	-0.000305	-0.010986
54.142	0.027008	-0.004578	0.011749	0.030365	0.031738	0.049286	-0.026855	-0.009003	-0.31265	-0.06546	0.02121	0.023956	-0.3392	-0.24445	0.009308	0.014954	-0.037384	-0.23392	-0.15823	-0.044403	0.08728	-0.019684	0.18326	0.085297	0.016479	-0.012512	0.31876	0.006561	-0.17502	-0.1532	0.000458	-0.016327
54.143	0.017853	0.017242	0.012665	0.010986	0.033722	0.10117	0.043488	0.000153	-0.18677	-0.072937	0.002594	0.015869	-0.15289	-0.1091	-0.046234	0.008698	-0.000305	-0.23972	-0.11917	-0.030365	0.097656	-0.053253	0.15457	0.050201	0.009003	-0.013275	0.61111	0.006409	-0.26688	-0.024567	-0.002899	-0.007935
54.144	0.017548	0.056458	0.070038	0.007935	0.014648	0.10696	0.073853	-0.016327	0.015259	-0.086517	0.00824	0.014343	-0.054779	0.070648	-0.00946	0.006256	0.028992	-0.21759	-0.12238	-0.041809	0.080414	-0.080414	0.15045	0.06897	-0.001984	-0.005035	0.6041	0.010681	-0.26566	-0.068817	-0.00351	-0.014191
54.145	0.009003	0.028534	-0.0383	-0.000763	-0.004578	0.1384	-0.006256	-0.013275	0.005341	-0.052948	0.024567	0.028534	-0.13702	0.19577	0.038147	0.020447	0.057678	-0.18982	0.042725	-0.016785	0.059967	-0.10437	0.14984	0.03006	-0.020447	0.003052	0.38895	0.009613	-0.18463	-0.10513	-0.007782	-0.014191
54.146	0.005188	0.051117	-0.053253	0.013275	-0.041199	0.19913	0.009766	-0.026093	-0.22064	0.002441	0.026245	0.0354	-0.076599	0.090027	-0.039673	0.005798	0.084534	-0.16876	0.10101	0.075073	0.051727	-0.11078	0.16129	-0.023041	-0.032959	0.010223	0.51468	0.00946	0.066071	-0.038757	-0.00412	-0.01358
54.147	-0.011902	0.095978	-0.010681	0.012512	-0.089569	0.27954	0.092621	-0.016632	-0.57358	-0.035706	-0.07309	0.032654	-0.177	-0.10361	-0.016174	-0.018463	0.046387	-0.18158	0.1532	0.31281	0.031738	-0.099335	0.13992	-0.056	-0.0354	0.014954	-0.14908	0.005035	0.22903	0.003204	-0.010681	-0.003815
54.148	-0.007935	0.11063	0.15274	-0.008698	-0.10315	0.24231	-0.059204	-0.001678	-0.46677	-0.028076	0.05661	0.028229	-0.23377	-0.011597	-0.019073	-0.003815	-0.018005	-0.17578	0.043945	0.3125	0.041656	-0.078125	0.1297	-0.011749	-0.00885	0.008545	-0.39169	0.014038	0.30182	0.024719	-0.000763	-0.007629
54.149	0.003815	0.11765	0.13443	0.004425	-0.088654	-0.14481	-0.068817	0.002289	-0.16083	-0.009613	0.037079	0.021362	0.43198	0.053864	0.021515	-0.005188	-0.026855	-0.11169	-0.011292	0.12466	0.049438	-0.058746	0.079193	0.040894	0.009308	0.006561	-0.56641	0.007782	0.40329	0.054779	-0.002747	-0.009613
